<?xml version="1.0" encoding="UTF-8"?>
<svg width="34px" height="21px" viewBox="0 0 34 21" version="1.1" xmlns="http://www.w3.org/2000/svg" xmlns:xlink="http://www.w3.org/1999/xlink">
    <!-- Generator: Sketch 51.3 (57544) - http://www.bohemiancoding.com/sketch -->
    <title>Combined Shape</title>
    <desc>Created with Sketch.</desc>
    <defs></defs>
    <g id="Main" stroke="none" stroke-width="1" fill="none" fill-rule="evenodd">
        <g id="Insight-(Single)" transform="translate(-1331.000000, -47.000000)" fill="#FFFFFF" fill-rule="nonzero">
            <g id="HEADER" transform="translate(76.000000, 30.000000)">
                <path d="M1256.5,17 L1287.5,17 C1288.32843,17 1289,17.6715729 1289,18.5 C1289,19.3284271 1288.32843,20 1287.5,20 L1256.5,20 C1255.67157,20 1255,19.3284271 1255,18.5 C1255,17.6715729 1255.67157,17 1256.5,17 Z M1256.5,26 L1287.5,26 C1288.32843,26 1289,26.6715729 1289,27.5 C1289,28.3284271 1288.32843,29 1287.5,29 L1256.5,29 C1255.67157,29 1255,28.3284271 1255,27.5 C1255,26.6715729 1255.67157,26 1256.5,26 Z M1256.5,35 L1277.5,35 C1278.32843,35 1279,35.6715729 1279,36.5 C1279,37.3284271 1278.32843,38 1277.5,38 L1256.5,38 C1255.67157,38 1255,37.3284271 1255,36.5 C1255,35.6715729 1255.67157,35 1256.5,35 Z" id="Combined-Shape"></path>
            </g>
        </g>
    </g>
</svg>